<svg
	xmlns="http://www.w3.org/2000/svg"
	xmlns:xlink="http://www.w3.org/1999/xlink"
	width="820" height="820">
	<title>Universal Media Server </title>
	<desc>UMS logo - Created by Surf@ceS</desc>
	<defs>
		<radialGradient id="a">
			<stop offset="0%" stop-color="#DDFDFE"/>
			<stop offset="60%" stop-color="#619DC0"/>
			<stop offset="100%" stop-color="#4B8CB5"/>
		</radialGradient>
		<path id="b" fill="#FFF" stroke="#4B8CB5" stroke-width="3" d="M195 395c-35-64-49-148-51-189 0-57 29-106 73-126 59-26 126-12 197 42 88 66 182 188 227 296 18 42 37 109 43 144a1 1 0 0 1-6 120c-60 0-85-94-12-117l-7-27c-58-207-263-401-388-366-23 6-49 33-56 61-9 29-22 81-12 138z" opacity="1"/>
	</defs>
	<path fill="url(#a)" d="M0 0h820v820H0z"/>
	<use xlink:href="#b" transform="rotate(240 410 410)"/>
	<use xlink:href="#b" transform="rotate(120 410 410)"/>
	<use xlink:href="#b"/>
</svg>