<?xml version="1.0" encoding="UTF-8" standalone="no" ?>
<!DOCTYPE svg PUBLIC "-//W3C//DTD SVG 1.1//EN" "http://www.w3.org/Graphics/SVG/1.1/DTD/svg11.dtd">
<svg xmlns="http://www.w3.org/2000/svg" xmlns:xlink="http://www.w3.org/1999/xlink" version="1.1" width="1080" height="1080" viewBox="0 0 1080 1080" xml:space="preserve">
<title>Universal Media Server </title>
<desc>UMS logo - Created by Surf@ceS</desc>
<defs>
    <radialGradient id="LogoCenterGradient">
      <stop offset="0%" stop-color="#DDFDFE" />
	  <stop offset="60%" stop-color="#619DC0" />
      <stop offset="100%" stop-color="#4B8CB5" />
    </radialGradient>
    <linearGradient id="BorderGradient" x1="0" x2="0" y1="0" y2="1">
      <stop offset="0%" stop-color="#DDDDDD" />
      <stop offset="100%" stop-color="#7B7B7B" />
    </linearGradient>
    <linearGradient id="LogoBorderGradient" x1="0" x2="0" y1="0" y2="1">
      <stop offset="0%" stop-color="#2C546D" />
      <stop offset="100%" stop-color="#4B8CB5" />
    </linearGradient>
    <radialGradient id="UpdatableGradient">
      <stop offset="0%" stop-color="#FF0000" />
      <stop offset="60%" stop-color="#FF0000" />
	  <stop offset="100%" stop-color="#FF0000" stop-opacity="0" />
    </radialGradient>
    <g id="LogoPart" style="stroke: #4B8CB5; stroke-width: 3; fill: #FFFFFF; opacity: 1;">
      <path d="m 325 525 c -35 -64 -49.5 -148.375 -51 -188.875 c 0 -57.375 28.5 -106.5 72.75 -126 c 59.25 -26.25 126 -12.375 196.875 41.625 c 88.125 66.375 181.875 188.625 227.25 296.25 c 17.625 41.625 37.125 109.125 43.125 144 a 1.05 1.05 0 0 1 -6 120 c -60 0 -85 -94 -12 -117 l -7.5 -27 c -57.375 -207.375 -262.5 -400.875 -387.75 -366.375 c -23.25 6.375 -48.375 33.75 -56.25 61.5 c -8.625 29.25 -21.625 81 -11.625 138 z" />
    </g>
</defs>
<g id="LogoBorder" transform="matrix(15.2 0 0 15.2 540 540)">
<circle style="stroke: #7B7B7B; stroke-width: 2; fill: #FFFFFF; opacity: 1;" vector-effect="non-scaling-stroke" cx="0" cy="0" r="35" />
</g>
<g id="LogoCenterBorder" transform="matrix(15 0 0 15 540 540)">
<circle style="fill: url(#BorderGradient); opacity: 1;" cx="0" cy="0" r="35" />
</g>
<g id="LogoCenter" transform="matrix(13 0 0 13 540 540)">
<circle style="stroke: url(#LogoBorderGradient); stroke-width: 2; fill: url(#LogoCenterGradient); opacity: 1;" vector-effect="non-scaling-stroke" cx="0" cy="0" r="35" />
</g>
<use xlink:href="#LogoPart" transform="rotate(240, 540, 540)" />
<use xlink:href="#LogoPart" transform="rotate(120, 540, 540)" />
<use xlink:href="#LogoPart" />
<g id="Updatable" transform="matrix(13 0 0 13 840 190)" opacity="0">
<circle style="fill: url(#UpdatableGradient);" cx="0" cy="0" r="15" />
</g>
</svg>