<svg xmlns="http://www.w3.org/2000/svg" width="148" height="128">
  <path fill="#1ebbee" d="M138.5 66.8c0-10.2-2.6-19.7-7.2-28 19.6-44.6-21.1-38-23.4-37.6-8.6 1.7-16.6 4.4-24 7.8h-3.3a57.9 57.9 0 0 0-56.4 44.8C38.7 37.6 48.9 31 54.9 28.4L52.1 31l-1 .9-1.8 1.8-1 1-1.6 1.7-1.1 1.1a144.1 144.1 0 0 0-8.4 9.8l-1 1.3-1 1.3-1.1 1.5-.8 1a185 185 0 0 0-7.7 11.4v.2c-.6.7-1 1.5-1.5 2.2a185.9 185.9 0 0 0-11.2 22.2c-16.4 58.9 35 34 42.1 30.3a57.6 57.6 0 0 0 80.2-32.5h-30.4a26.7 26.7 0 0 1-23.1 12.7c-14.6 0-26.4-11-26.4-24.6H138c.3-2.5.5-5 .5-7.5zm-10.8-57c5 3.4 9 8.7 2.1 26.5a58 58 0 0 0-28.3-23.5c5.4-2.6 18.7-8 26.2-3zm-106 108.8c-4-4.2-4.7-14.3 4.3-32.8a58 58 0 0 0 25.2 30.8c-5.8 3.2-21.2 10.4-29.4 2zm33.4-60.2c.5-13.2 12-23.8 26.2-23.8a25.5 25.5 0 0 1 26.1 23.8H55.1z"/>
</svg>
