<svg
	xmlns="http://www.w3.org/2000/svg"
	width="148" height="128">
	<path fill="#FF1B2D" d="m138 64c0 19-8.3 36-21.3 47.8-16.4 8-31.6 2.4-36.7-1.1 16-3.5 28.3-23.1 28.3-46.7 0-23.6-12.2-43.2-28.3-46.7 5.1-3.5 20.3-9.1 36.7-1.1 13 11.8 21.3 28.9 21.3 47.8zm-84.8-36.2c-7 8.3-11.6 20.7-11.9 34.6v3c.3 13.9 4.9 26.3 11.9 34.6 9.2 12 22.7 19.4 38 19.4 9.4 0 18.1-2.9 25.6-7.8-11.3 10.2-26.2 16.3-42.6 16.3-1 0-2.1 0-3 0-33.8-1.4-60.9-29.5-60.9-63.9 0-35.4 28.6-64.1 63.9-64.1.2 0 .2 0 .3 0 16.2 0 31 6.2 42.3 16.3-7.5-4.9-16.2-7.8-25.6-7.8-15.3 0-28.9 7.7-38 19.4z"/>
</svg>