<svg xmlns="http://www.w3.org/2000/svg" width="148" height="128">
  <defs>
    <radialGradient id="b">
      <stop offset="0" stop-color="#06c2e7"/>
      <stop offset=".25" stop-color="#0db8ec"/>
      <stop offset=".5" stop-color="#12aef1"/>
      <stop offset=".75" stop-color="#1f86f9"/>
      <stop offset="1" stop-color="#107ddd"/>
    </radialGradient>
    <linearGradient id="a" x1="0" x2="0" y1="1" y2="0">
      <stop offset="0" stop-color="#bdbdbd"/>
      <stop offset="1" stop-color="#fff"/>
    </linearGradient>
    <filter id="c" width="1" height="1" x="0" y="0" color-interpolation-filters="sRGB">
      <feGaussianBlur stdDeviation=".95"/>
    </filter>
  </defs>
  <path fill="url(#a)" stroke="#cdcdcd" stroke-linecap="round" stroke-linejoin="round" stroke-width=".09" d="M137.77 63.76a63.63 63.63 0 0 1-63.6 63.65 63.62 63.62 0 0 1-63.6-63.65A63.62 63.62 0 0 1 74.17.1c35.12 0 63.6 28.5 63.6 63.65z"/>
  <path fill="url(#b)" d="M132.79 63.76a58.64 58.64 0 0 1-58.62 58.66 58.64 58.64 0 0 1-58.62-58.66A58.64 58.64 0 0 1 74.17 5.1a58.64 58.64 0 0 1 58.62 58.66z"/>
  <path fill="#f4f2f3" d="M74.17 8.16a.86.86 0 0 0-.86.86v9.86c0 .48.39.85.86.85s.85-.37.85-.85V9.02a.86.86 0 0 0-.85-.86zm-5.6.36h-.17a.85.85 0 0 0-.76.93l.43 4.13a.85.85 0 1 0 1.7-.18l-.43-4.12a.85.85 0 0 0-.76-.76zm11.23 0a.85.85 0 0 0-.77.76l-.43 4.13c-.05.47.3.89.76.94.47.05.89-.3.94-.76l.43-4.13a.86.86 0 0 0-.93-.94zm-16.96.83a.85.85 0 0 0-.83 1.03l2.03 9.65a.86.86 0 0 0 1.68-.35l-2.04-9.65a.85.85 0 0 0-.84-.68zm22.7 0c-.4 0-.75.28-.84.69l-2.05 9.64a.86.86 0 1 0 1.67.36l2.05-9.65a.85.85 0 0 0-.83-1.03zM57.36 10.9a.85.85 0 0 0-.89 1.12l1.28 3.95c.14.45.63.7 1.07.55.46-.15.7-.63.56-1.08l-1.29-3.95a.85.85 0 0 0-.73-.59zm33.63 0a.86.86 0 0 0-.74.6l-1.28 3.94c-.15.45.1.93.55 1.08.45.15.93-.1 1.07-.55l1.29-3.95a.85.85 0 0 0-.55-1.07.84.84 0 0 0-.34-.05zm-39.06 1.99c-.1 0-.22.03-.33.07-.43.2-.62.7-.43 1.13l4 9.02c.2.43.7.62 1.13.43.43-.19.63-.7.43-1.13l-4-9.01a.85.85 0 0 0-.8-.51zm44.54.03a.85.85 0 0 0-.8.5l-4.01 9.02a.85.85 0 1 0 1.56.7l4.01-9.02a.85.85 0 0 0-.76-1.2zM46.9 15.54a.86.86 0 0 0-.8 1.28l2.08 3.6a.85.85 0 1 0 1.48-.86l-2.08-3.6a.86.86 0 0 0-.68-.42zm54.53 0a.86.86 0 0 0-.68.43l-2.07 3.6a.85.85 0 1 0 1.48.85l2.07-3.6a.85.85 0 0 0-.8-1.28zM42.02 18.6a.86.86 0 0 0-.66 1.36l5.78 7.98a.86.86 0 1 0 1.38-1l-5.78-7.98a.85.85 0 0 0-.72-.36zm64.36.05a.84.84 0 0 0-.72.35l-5.8 7.98a.86.86 0 0 0 1.38 1l5.8-7.97a.86.86 0 0 0-.66-1.36zm-68.73 3.62a.84.84 0 0 0-.61.22.85.85 0 0 0-.07 1.2l2.78 3.09a.85.85 0 1 0 1.27-1.14l-2.78-3.1a.86.86 0 0 0-.59-.27zm73.04 0a.86.86 0 0 0-.59.29l-2.77 3.08a.85.85 0 1 0 1.27 1.14l2.77-3.08a.86.86 0 0 0-.68-1.43zm-77.22 4.02a.85.85 0 0 0-.53 1.49l7.33 6.6c.35.32.89.29 1.2-.06a.86.86 0 0 0-.06-1.21l-7.33-6.6a.84.84 0 0 0-.61-.22zm81.43.03a.86.86 0 0 0-.62.22l-7.33 6.6a.85.85 0 0 0-.06 1.2c.31.35.85.38 1.2.06l7.33-6.59a.85.85 0 0 0-.52-1.5zm-84.92 4.45a.84.84 0 0 0-.71.35c-.29.39-.2.92.18 1.2l3.36 2.44c.38.27.91.19 1.19-.2a.85.85 0 0 0-.19-1.19l-3.35-2.44a.85.85 0 0 0-.48-.16zm88.4.03a.86.86 0 0 0-.48.16l-3.35 2.44a.85.85 0 1 0 1 1.38l3.36-2.43a.85.85 0 0 0 .18-1.2.85.85 0 0 0-.71-.35zm-91.65 4.75a.84.84 0 0 0-.68.42c-.23.41-.1.93.32 1.17l8.53 4.93a.86.86 0 0 0 .86-1.48l-8.54-4.93a.83.83 0 0 0-.49-.11zm94.88 0a.84.84 0 0 0-.5.1l-8.53 4.94a.85.85 0 1 0 .85 1.48l8.54-4.93a.85.85 0 0 0-.36-1.6zm-97.34 5.09a.85.85 0 0 0-.36 1.63l3.79 1.7c.43.19.93 0 1.12-.44.2-.43 0-.93-.43-1.13l-3.78-1.69a.84.84 0 0 0-.34-.07zm99.8.03a.8.8 0 0 0-.32.08l-3.79 1.69a.84.84 0 0 0-.43 1.12c.19.43.7.63 1.13.44l3.78-1.69c.44-.2.63-.7.44-1.13a.86.86 0 0 0-.8-.51zM22.09 45.95a.85.85 0 0 0-.74.59c-.14.45.1.93.55 1.07l9.37 3.06c.46.15.94-.1 1.08-.55a.85.85 0 0 0-.55-1.08L22.42 46a.85.85 0 0 0-.34-.04zm104.19.03a.9.9 0 0 0-.34.04l-9.38 3.05a.85.85 0 0 0-.54 1.08c.14.45.62.7 1.07.55l9.38-3.05a.86.86 0 0 0-.2-1.67zM20.72 51.54a.86.86 0 0 0-.18 1.69l4.05.86a.86.86 0 1 0 .36-1.67l-4.06-.87a.9.9 0 0 0-.17-.01zm106.9 0a.9.9 0 0 0-.17.02l-4.06.86a.86.86 0 1 0 .36 1.68l4.05-.87a.86.86 0 0 0-.18-1.69zM19.68 57.15a.85.85 0 0 0-.76.76c-.05.48.29.9.76.95l9.8 1.03a.85.85 0 0 0 .18-1.7l-9.8-1.03h-.18zm108.98.08h-.17l-9.8 1.02a.85.85 0 1 0 .17 1.7l9.8-1.02a.85.85 0 0 0 .77-.94.85.85 0 0 0-.77-.76zM19.52 62.9a.85.85 0 0 0-.86.85c0 .47.38.86.86.86h4.14a.86.86 0 1 0 0-1.71zm105.15 0a.86.86 0 1 0 0 1.7h4.15a.86.86 0 1 0 0-1.7zm-95.02 4.66h-.17l-9.8 1.02a.85.85 0 0 0-.77.94c.05.47.47.81.94.76l9.8-1.02a.85.85 0 0 0 0-1.7zm89.03.06a.86.86 0 0 0 0 1.7l9.8 1.04c.47.05.9-.3.94-.76a.85.85 0 0 0-.76-.94l-9.8-1.04h-.18zM24.76 73.4c-.06 0-.12 0-.17.02l-4.06.86a.86.86 0 0 0 .36 1.67l4.06-.86a.85.85 0 0 0-.19-1.7zm98.81 0c-.4 0-.75.28-.84.68-.1.46.2.92.66 1.02l4.06.86c.46.1.91-.2 1.01-.66a.85.85 0 0 0-.65-1.01l-4.06-.87a.86.86 0 0 0-.18-.02zM31.6 76.78a.9.9 0 0 0-.34.04l-9.37 3.05a.85.85 0 0 0 .53 1.63l9.37-3.05a.86.86 0 0 0-.19-1.67zm85.14.03a.85.85 0 0 0-.19 1.67l9.38 3.06c.45.14.93-.1 1.08-.55a.85.85 0 0 0-.55-1.08l-9.38-3.06a.92.92 0 0 0-.34-.04zm-88.71 6.65a.9.9 0 0 0-.34.08l-3.79 1.68a.85.85 0 1 0 .7 1.57l3.79-1.7a.86.86 0 0 0-.36-1.63zm92.29.04a.85.85 0 0 0-.36 1.63l3.78 1.7c.43.19.94 0 1.13-.44.2-.43 0-.94-.43-1.13l-3.79-1.69a.84.84 0 0 0-.33-.08zM35.4 85.35a.84.84 0 0 0-.49.11l-8.53 4.93a.85.85 0 0 0-.32 1.17c.24.41.76.55 1.17.32l8.54-4.94a.85.85 0 0 0-.37-1.6zm77.56 0a.86.86 0 0 0-.37 1.6l8.54 4.93a.86.86 0 0 0 .85-1.49l-8.54-4.93a.83.83 0 0 0-.48-.11zm-79.69 7.24a.82.82 0 0 0-.47.16l-3.36 2.44a.85.85 0 0 0-.19 1.19c.28.38.81.47 1.2.2l3.35-2.45a.85.85 0 0 0-.53-1.54zm81.8.02a.85.85 0 0 0-.72.36c-.28.38-.2.91.18 1.2l3.36 2.43c.38.28.91.2 1.2-.19a.85.85 0 0 0-.2-1.2l-3.35-2.43a.85.85 0 0 0-.48-.17zm-74.2.3a.84.84 0 0 0-.61.22l-7.34 6.6a.85.85 0 1 0 1.14 1.27l7.34-6.6a.85.85 0 0 0-.53-1.49zm66.6.02a.85.85 0 0 0-.53 1.49l7.32 6.6a.85.85 0 1 0 1.15-1.27l-7.33-6.6a.84.84 0 0 0-.61-.22zM47.82 99.2a.85.85 0 0 0-.73.35l-5.8 7.98a.85.85 0 1 0 1.39 1l5.8-7.97a.85.85 0 0 0-.66-1.36zm52.65.03a.85.85 0 0 0-.66 1.36l5.79 7.98a.85.85 0 1 0 1.38-1l-5.78-7.98a.85.85 0 0 0-.73-.36zm-60.14 1.24a.87.87 0 0 0-.6.28l-2.76 3.08a.85.85 0 1 0 1.26 1.15l2.78-3.09a.86.86 0 0 0-.68-1.42zm67.67 0a.86.86 0 0 0-.68 1.43l2.77 3.08c.32.35.86.38 1.21.06a.85.85 0 0 0 .07-1.2l-2.78-3.09a.87.87 0 0 0-.59-.28zm-52.09 3.42a.85.85 0 0 0-.8.5l-4 9.02a.85.85 0 1 0 1.55.7l4.02-9.02a.85.85 0 0 0-.77-1.2zm36.46.02a.76.76 0 0 0-.33.08c-.43.2-.63.7-.44 1.13l4 9.01c.2.44.7.63 1.13.44.44-.2.63-.7.44-1.13l-4-9.02a.86.86 0 0 0-.8-.5zm-43.51 2.77a.86.86 0 0 0-.68.42l-2.08 3.6a.85.85 0 1 0 1.48.85l2.08-3.6a.85.85 0 0 0-.8-1.27zm50.62 0a.86.86 0 0 0-.8 1.28l2.07 3.6c.24.4.76.54 1.17.3a.85.85 0 0 0 .31-1.16l-2.07-3.6a.86.86 0 0 0-.68-.42zm-34.62.12c-.4 0-.76.28-.85.68l-2.04 9.65c-.1.46.2.92.66 1.01.46.1.91-.19 1-.65l2.05-9.65a.85.85 0 0 0-.82-1.03zm18.6.01c-.06 0-.12 0-.18.02a.85.85 0 0 0-.66 1.01l2.04 9.65a.86.86 0 0 0 1.68-.34l-2.05-9.66a.85.85 0 0 0-.84-.68zm-9.3.98a.85.85 0 0 0-.85.85v9.86a.86.86 0 1 0 1.71 0v-9.86a.85.85 0 0 0-.85-.85zm-15.68 3.18a.85.85 0 0 0-.74.59l-1.28 3.95a.85.85 0 1 0 1.63.53l1.28-3.95a.85.85 0 0 0-.89-1.12zm31.37 0a.86.86 0 0 0-.89 1.12l1.28 3.95a.86.86 0 0 0 1.63-.53l-1.28-3.95a.86.86 0 0 0-.74-.59zm-21.04 2.2a.85.85 0 0 0-.77.76l-.43 4.13a.85.85 0 1 0 1.7.18l.43-4.13a.85.85 0 0 0-.93-.94zm10.69 0h-.18a.86.86 0 0 0-.76.95l.43 4.12c.05.48.47.82.94.76a.85.85 0 0 0 .77-.93l-.44-4.13a.85.85 0 0 0-.76-.76z"/>
  <path d="M114.22 29.55 67.47 56.74 37.9 103.3l43.25-32.06z" filter="url(#c)" opacity=".41"/>
  <path fill="#ff5150" d="m80.87 70.78-13.4-14.04 47.54-32z"/>
  <path fill="#f1f1f1" d="m80.87 70.78-13.4-14.04-34.14 46.05z"/>
  <path d="m33.33 102.79 47.54-32 34.14-46.06z" opacity=".24"/>
</svg>
