<svg xmlns="http://www.w3.org/2000/svg" width="148" height="128">
  <path fill="#ef3939" d="M74 128c28 0 43.6 0 53.8-10.2S138 92 138 64s0-43.6-10.2-53.8S102 0 74 0 30.4 0 20.2 10.2 10 36 10 64s0 43.6 10.2 53.8S46 128 74 128z"/>
  <path fill="#fff" d="M107.7 30.1a48 48 90 1 0 0 67.8 48 48 90 0 0 0-67.8zM104.8 52 81.1 93.4a8 8 90 0 1-6.5 4.3 7.6 7.6 90 0 1-7.5-4L52.2 68l-9-16a8 8 90 0 1 6.4-12 7.6 7.6 90 0 1 7.3 4l6.7 11.5c1.6 2.8 3.1 5.6 4.8 8.3a12.5 12.5 90 0 0 10.4 6.5 12.8 12.8 90 0 0 13.5-11.4v-1.3a13.4 13.4 90 0 0-1.4-6 8 8 90 1 1 15.1-4.8 8.3 8.3 90 0 1-1.2 5.2z"/>
</svg>