<svg
	xmlns="http://www.w3.org/2000/svg"
	xmlns:xlink="http://www.w3.org/1999/xlink"
	width="48" height="48">
	<defs>
		<linearGradient id="c" x1="0" x2="0" y1="0" y2="1">
			<stop offset="0%" stop-color="#B2B2B2"/>
			<stop offset="100%" stop-color="#7F7F7F"/>
		</linearGradient>
		<linearGradient id="d" x1="0" x2="0" y1="0" y2="1">
			<stop offset="0%" stop-color="#B6B6B6"/>
			<stop offset="100%" stop-color="#9A9A9A"/>
		</linearGradient>
		<path id="a" d="M8 4h6c2 0 3 1 3 3h19c4 0 5 3 5 5H11.1C9 12 7 13 6.6 15l-.8 18C5 33 4 31 4 30V9c0-2 1-2 1-2 0-2 1-3 3-3Zm3 10h30c2 0 3 1 3 3l-1 20c-.1 2-.5 3-3 3H10c-2.8 0-3.1-1-3-3l1-20c.1-2 1-3 3-3Z"/>
		<path id="b" d="M11 14h30c2 0 3 1 3 3l-1 20c-.1 2-.5 3-3 3H10c-2.8 0-3.1-1-3-3l1-20c.1-2 1-3 3-3Z"/>
	</defs>
	<use xlink:href="#a" fill="none" stroke="#000" stroke-opacity=".2" stroke-width="7"/>
	<use xlink:href="#a" fill="none" stroke="#FFF" stroke-opacity=".7" stroke-width="6"/>
	<use xlink:href="#a" fill="url(#c)"/>
	<use xlink:href="#b" fill="url(#d)"/>
</svg>