<svg
	xmlns="http://www.w3.org/2000/svg"
	xmlns:xlink="http://www.w3.org/1999/xlink"
	width="48" height="48">
	<defs>
		<linearGradient id="c" x1="0" x2="0" y1="0" y2="1">
			<stop offset="0%" stop-color="#6E6E6E"/>
			<stop offset="100%" stop-color="#5B5B5B"/>
		</linearGradient>
		<linearGradient id="a" x1="0" x2="0" y1="0" y2="1">
			<stop offset="0%" stop-color="#66A3FF"/>
			<stop offset="100%" stop-color="#3385FF"/>
		</linearGradient>
		<path id="b" d="M22 5.8c.1 0 .3 0 .4.3-.6-.8.7-.4.7-1.2.7-.6.4-.8.7-.8l.3-.1-.7.1h-.2l-1 .1c-1.2.1-2.2 1.5-2.6 1.5l-.3.3h.2l-.6.3c.1 0-1.1.6-1.1 1.4 0 .3.1.6.3.6.1 0 .4-.1.7-.6.8-1 2.8-1.1 3.4-1.7-.6 0-.4-.3-.1-.3zm-4.4.3.1-.3.3-.3c.6-.1.1-.3.4-.4l.1-.1.1-.1-.4.1.7-.4-1 .3.8-.3h.2-.1c-1 .1-1.7.7-1.5.7h.3l-.1.3c.1.3-1.9 1-2.2 1.2l.3-.1c.1 0 0 .3-.3.4l.3.1.4-.4.1.1.6-.6.1.1c.1 0 .4-.1.7-.4h-.1zm-2.2 1.8-.6.3c-.1 0 0-.3.3-.6.1-.3.3-.6.1-.6-.1 0-.3 0-.6.3-.8.6-2.2 2.1-2.9 2.1 1-.7.7-2.2 2.1-2.6 1.4-.8 2.3-.6 3.6-1.5l-1 .4.6-.3h-.1c-.3 0 2.2-1 2.3-1-1.1.1-2.8 1-3 1-.1 0-.7.1-1.2.4-.6.1-1.1.4-1.1.4a19 19 0 00-9.5 12.1c.6 1.1.1 3.3 1 3.9 1 .8-.8 3-.3 4.4.4 2.5 2.5 4.3 2.6 6.9.4 1.8 1.7 4 2.2 5.1l1.8 1.7-.3-.7c-.1-.6-1.4-1.9-.8-1.9h.1c-.7-.7 1.5-.6 0-1.4-.1-.3-.3-.3-.1-.3l.3.1.6.1c.3 0 .4-.1.3-.8h.1c.3 0 .1-.6.1-1 0-.6.1-1 .8-1h.3c1.5-.8.1-3.2 1.9-4 0-1.9-2.6-2.1-3.7-2.9l-.4.1-.4-.1-.4-.1c1.7-.4.4-2.8-1-2.8h-.1c-.1-1-.7-.7-.7-1.5h-.3c-.3 0-.4-.1-.7-.3l-.4-.3-.3.4v-.7l-.4.3-.6.3c-1.1-.8 0-2.2-.6-3.3.4-.4.6-1.1.4-1.1-.1 0-.3.1-.6.7-.4-1 .7-3.2 1.5-3.3h.1l.4.3v1.4l.3-.7c.3-1.1 2.1-1.9 2.2-2.6.1 0 1.5-1.1 2.1-1.2.3-.3.4-.3.6-.3l.3.1.1.1.1-.3c-.3-.6.4-1.1.3-1.1l-.8.3h-.1l.6-.3 1.1-.3.4.1c1.5-.4.7-.8.7-.8.4-.3.3-1.2 1-1.8zm-6.8 4 .4-.4c.6-.4 1.1-.7.6-1l.7-.4c0 .4-.4 1.7-.6 1.7l-.1-.3.1-.3-.6.4c-.3.1-.4.4-.4.4zm.6.3c-.3 0-.3-.1.6-.3l.6-.1c-.4.3-.8.4-1.1.4zm15-1h.3c.3 0 .1.1 0 .3l-.3.3.7-.1c1.9-.1-.7-1.8-.3-2.3h-.1c-.8 1 .6 1-.1 2.1zm-.8 0c.1 0 .3-.1.6-.6.3-.3.1-.3-.1-.4-.7.1-.7 1.1-.4 1.1zm6.6 3h.3-.1zm13 2.3.3.6s-1.2-3.2-1.8-3.7a21 21 0 00-12.5-9.4l-1.6-.2c-.1 0 2.1 1 3.6 1.4l-1.1-.3.4.3-.7-.1s.6.1 1.1.4c.6.1 1.1.4 1 .4h-.3l.7.4-1.2-.6-1.4-.6.6.4 1 .6-.7-.1c1 .6-.7.3-.1 1l-.4-.4.1.3v.3c.7.7-.4.1.4.7-.6-.3-1.7-.7-1.2-.7l.7.1c-.7-.7-2.3-.8-2.5-.8-.4 0-.4.4-.4 1 0 1-1 1-.8 1.5l.1.4c0 .1.1.4.4.4l.6-.1c.3.6.6.7.8.7.3 0 .6-.4.6-.8-.4-.1-.8-1.8-.3-1.8l.3.1c-.8 1.9 3 .7 1 1.5.6.7-.3.6-.1 1.4l-1.1.1c-.6 0-1-.3-1-1.1-.7.4.7 1.5-.7 1.5h-.1c-.7 1.2-3 .8-1.1 2.1.1.6-.3.7-.7.7h-.9c-.6 0-.8.1-.6 1-.3.8.3 1.1 1 1.1.8 0 1.7-.6 1.8-1.4.4-.7 1-.8 1.5-.8.8 0 1.8.7 2.3 1.5l.1.1v-.8c-.8-.3-1.5-1.2-1.2-1.2l.7.4c.6 0 1 .4 1.2.8.3.4.6.8.8.8l.3-.3-.1-.4.1-.4.4.1c.7-.1-.4-1.9.4-1.9h.3c0 .3.1.4.3.4.3 0 .6-.4-.1-.4l.4-.3c.3 0 0 1.1 1.2 1.1.4 1-3.4 0-2.2 1.9l1 .3h.6c.6 0 1 .1.8 1.4-.3.3-.7.3-1.1.3l-1-.1-1-.1c-.4 0-.8.1-1 .7-1.1-.4-2.6-.4-2.5-1.9-1.9.3-4 .1-5.5 1.4-.1 1.8-3.2 2.3-2.3 4.3-.8 1.8 1.1 4.4 3 4.4h.3c1.1 0 2.2-.6 3.2-.6.6 0 1 .1 1.4.6h.3c1.5 0-.4 2.3 1.2 2.8 1.7 1.7-1 3.3.3 5 .1 1.2.7 2.3.7 3.4h.4c2.1 0 3.3-1.8 4.6-3.2-.4-2.1 2.9-2.3 1.8-4.7-.6-2.5 2.5-3.9 2.2-6.3 0-.4 0-.4-.3-.4l-.6.1-.7.1c-.3 0-.4-.1-.4-.7-1.4-1.4-2.1-3.2-3.4-4.6 1.7.8 2.8 2.8 3.4 4.4h.3c1.4 0 3.3-3.3 1.2-4.1-.1.3-.3.4-.4.4-.3 0-.7-.4-1-.8-.3-.4-.4-.8-.3-.8.1 0 .3.1.7.6.4.3.8.3 1.2.3l1.2-.1c.6.3.8 1 1 1l.1-.1c.4 1.1 1 2.9 1.4 3.4-.3-1.7-.3-3.3-.7-5zm-5.4-2.2c-1.1-.3-1.5-1.7-2.3-2.5 0-.3.3-.1.3-.6 1.1.4.8.7.7.8.4.7 1.7 1.2 1.4 2.2zm-15-7.3c-1.1.3-1.2 0-1 .6l.4.1c.6 0 1.2-.3.7-.7zm15.5 26.6c1.4-1.1 1.5-2.6 1.7-4-.6 1.2-2.5 2.5-1.7 4zm-6.3-18.9z"/>
	</defs>
	<circle cx="24" cy="24" r="20.5" fill="none" stroke="#000" stroke-opacity=".2" stroke-width="7"/>
	<circle cx="24" cy="24" r="20.5" fill="none" stroke="#FFF" stroke-width="6"/>
	<circle cx="24" cy="24" r="20.5" fill="url(#a)"/>
	<use xlink:href="#b" fill="url(#c)"/>
</svg>