<svg xmlns="http://www.w3.org/2000/svg" xmlns:xlink="http://www.w3.org/1999/xlink" width="48" height="48">
	<defs>
		<linearGradient id="c" x1="0" x2="0" y1="0" y2="1">
			<stop offset="0%" stop-color="#A6A6A6"/>
			<stop offset="100%" stop-color="#808080"/>
		</linearGradient>
		<linearGradient id="d" x1="0" x2="0" y1="0" y2="1">
			<stop offset="0%" stop-color="#3385FF"/>
			<stop offset="100%" stop-color="#0066FF"/>
		</linearGradient>
		<path id="a" d="M7.2 19.7H6.1c-.7 0-1.4.3-2 .8-.5.5-.8 1.2-.8 2v3.2c0 .7.3 1.4.8 2 .5.5 1.2.8 2 .8h1c.3 1.2.7 2.4 1.3 3.5l.5 1-.6.6c-.6.6-.8 1.3-.8 2 0 .8.3 1.5.8 2l2.2 2.2c1 1 2.9 1 3.9 0l.7-.7c1.4.8 3 1.5 4.6 1.9v1c0 1.5 1.2 2.8 2.8 2.8h3.1c1.5 0 2.8-1.2 2.8-2.8v-1c1.6-.4 3.2-1 4.6-1.9l.7.7c1 1.1 2.9 1.1 3.9 0l2.2-2.2a3 3 0 0 0 .8-1.9c0-.8-.2-1.6-.8-2.1l-.7-.7.5-1c.6-1.1 1-2.3 1.3-3.5h1c.7 0 1.4-.3 2-.8.5-.5.8-1.2.8-2v-3.2c0-.7-.3-1.4-.8-2-.5-.5-1.2-.8-2-.8h-1a21 21 0 0 0-1.3-3.5l-.5-1 .7-.7c.6-.6.8-1.3.8-2 0-.8-.3-1.5-.8-2l-2.2-2.1a2.8 2.8 0 0 0-3.9 0L33 9c-1.4-.9-3-1.5-4.6-1.9v-1c0-1.6-1.3-2.8-2.8-2.8h-3.1a2.8 2.8 0 0 0-2.8 2.8v1c-1.6.4-3.2 1-4.6 1.9l-.7-.7c-1.1-1-2.9-1-3.9 0l-2.2 2.1a3 3 0 0 0-.8 1.9c0 .8.2 1.6.8 2.1l.7.8-.5 1c-.6 1.1-1 2.3-1.3 3.5zM9.1 21a17 17 0 0 1 2.2-5.3c.3-.4.2-1-.1-1.3L9.9 13c-.2-.2-.2-.4-.2-.6 0-.1 0-.3.2-.4l2.2-2.2c.2-.2.7-.2.9 0l1.3 1.3c.4.4.9.4 1.3.1A15 15 0 0 1 21 9c.5-.1.9-.5.9-1V6.1c0-.4.3-.7.6-.7h3.1c.4 0 .6.3.6.6v1.9c0 .5.4.9.9 1 1.9.4 3.8 1.1 5.4 2.3.4.3 1 .2 1.3-.1l1.3-1.3c.2-.2.7-.2.9 0l2.2 2.2c.2.2.2.3.2.5 0 .1 0 .3-.2.5l-1.3 1.3a1 1 0 0 0-.1 1.3l.9 1.5c.6 1.2 1.1 2.5 1.3 3.8.1.5.5.9 1 .9h1.9l.5.2.2.5v3.2l-.2.4-.5.2h-1.8c-.5 0-.9.4-1 .9a17 17 0 0 1-2.2 5.3 1 1 0 0 0 .1 1.3l1.3 1.3c.2.2.2.4.2.6 0 .1 0 .3-.2.5l-2.2 2.1c-.2.2-.7.2-.9 0L33.9 37a1 1 0 0 0-1.3-.1 16 16 0 0 1-5.4 2.3c-.5.1-.9.5-.9 1v1.9c0 .4-.3.6-.6.6h-3.1c-.4 0-.6-.3-.6-.6v-1.9c0-.5-.4-.9-.9-1-2-.4-3.8-1.1-5.4-2.2l-.6-.2c-.3 0-.5.1-.8.3l-1.4 1.2c-.2.2-.7.2-.9 0l-2.2-2.2c-.2-.2-.2-.3-.2-.5 0-.1 0-.3.2-.5l1.3-1.3c.4-.4.4-.9.1-1.3l-.9-1.5c-.6-1.2-1.1-2.5-1.3-3.8-.1-.5-.5-.9-1-.9H6.1l-.5-.2a.8.8 0 0 1-.2-.5v-3.1l.2-.5.5-.2H8c.5 0 1-.3 1.1-.8z"/>
		<path id="b" d="M22.8 11.1s.2 0 .3.2c-.4-.6.4-.4.5-1 .5-.3.3-.5.4-.5l.2-.2-.5.2h-.1l-.7.1c-1 0-1.7 1.1-2 1.1l-.2.2h.1l-.4.3c.1 0-.7.4-.7 1 0 .3 0 .4.2.4.1 0 .3 0 .5-.4.6-.7 2-.8 2.5-1.2-.3 0-.3-.2-.1-.2zm-3.2.2.1-.1.2-.2.4-.2v-.3h.1-.3l.6-.3-.8.2.6-.2h.1c-.7 0-1.2.5-1 .5h.1l-.1.2c0 .2-1.4.7-1.6.9h.2l-.2.2.2.1.4-.2c.2 0 .3-.2.4-.4h.2s.2 0 .5-.3h-.1zM18 12.6l-.4.2c-.2 0 0-.2.1-.4s.2-.3 0-.3l-.4.1c-.6.4-1.6 1.5-2 1.5.6-.5.4-1.6 1.5-1.8 1-.6 1.7-.4 2.6-1.1l-.8.3.4-.3c-.3 0 1.5-.6 1.6-.6-.7 0-2 .7-2.1.7l-1 .2-.8.3c-3.2 1.8-6 5-6.9 8.7.4.8.1 2.4.7 2.9.7.5-.5 2.2-.2 3.2.3 1.8 1.8 3 2 5 .2 1.2 1.2 2.8 1.6 3.6.3.3 1.1 1.2 1.3 1.2l-.2-.5c-.2-.4-1-1.4-.6-1.4-.4-.5 1.2-.4 0-1v-.2h.2l.4.2c.1 0 .3-.1.2-.6.2 0 .2-.3.2-.7 0-.3.1-.7.6-.7h.2c1.1-.6.1-2.3 1.4-2.9 0-1.4-2-1.5-2.6-2h-.4a1 1 0 0 1-.3 0H14c1.2-.4.3-2.1-.7-2.1-.1-.7-.5-.5-.6-1h-.1l-.5-.2-.3-.3-.3.3c.1-.3 0-.4 0-.4s-.2 0-.3.2l-.4.2c-.9-.5 0-1.6-.5-2.4.3-.3.4-.8.3-.8l-.4.5c-.3-.7.5-2.3 1-2.4h.1l.4.1v1l.2-.4c.1-.9 1.4-1.5 1.6-2 .1 0 1-.8 1.5-.9.1-.2.2-.2.3-.2l.2.1.1.1.1-.1c-.2-.4.4-.8.2-.8a2.6 2.6 0 0 0-.6.2l.3-.2.8-.3.4.1c1-.2.4-.6.5-.6.3-.2.2-.8.7-1.3zm-4.9 2.9.3-.4c.4-.3.8-.5.4-.7.2 0 .3-.2.5-.3 0 .4-.3 1.2-.5 1.2v-.4l-.4.3-.3.3zm.4.2c-.1 0-.1-.1.5-.3h.3l-.8.3zm11-.7h.1c.2 0 .1 0 0 .1l-.2.2.5-.1c1.4-.1-.6-1.3-.2-1.7h-.1c-.6.7.3.7-.2 1.5zm-.6 0s.2-.1.3-.4c.2-.2.1-.3 0-.4-.6.2-.6.8-.3.8zm4.8 2.2h.1-.1zm9.4 1.8.2.3-1.3-2.7c-2-3.3-5.3-5.8-9-6.7-.2 0 0 0 0 0l.4.2-.5-.2-1-.2a21 21 0 0 0 1.7.8l.3.2-.5-.2.9.3.7.3h-.3l.5.3-1-.5-.9-.4.4.3.7.3-.5-.1c.7.4-.5.2-.1.7l-.4-.3.1.2s.1.2 0 .2c.5.5-.3 0 .3.5-.4-.2-1.2-.6-.9-.6l.5.1c-.4-.5-1.7-.5-1.7-.6-.4 0-.4.3-.3.7 0 .7-.7.7-.6 1.2v.2c.1.2.2.3.4.3l.3-.1c.3.4.5.5.6.5.2 0 .4-.3.4-.6-.3-.1-.6-1.3-.2-1.3h.2c-.6 1.5 2.2.6.6 1.2.4.5-.2.4 0 1l-.9.2c-.4 0-.7-.2-.6-.8-.5.3.5 1.1-.5 1.1-.5.9-2.3.6-1 1.5.2.4-.1.5-.4.5h-.5c-.4 0-.7 0-.4.6-.2.6.2.9.6.9.6 0 1.3-.4 1.3-1 .3-.5.7-.6 1.1-.6.6 0 1.3.4 1.7 1h.1v-.4c-.6-.2-1-1-.9-1l.5.3c.4 0 .7.3 1 .6.2.4.4.7.6.7l.1-.2v-.6h.4c.5 0-.3-1.3.3-1.3h.2c0 .3.1.4.2.4.2 0 .4-.3 0-.4l.3-.2c.2 0 0 .8.9.8.3.7-2.5 0-1.6 1.4l.7.1h.4c.4 0 .7.1.6 1-.3.2-.5.2-.8.2a4 4 0 0 1-.7 0l-.7-.1c-.3 0-.5 0-.7.5-.8-.4-1.9-.4-1.8-1.4-1.4.2-2.9 0-4 1 0 1.2-2.2 1.7-1.7 3.1-.6 1.4.8 3.2 2.2 3.2h.2c.8 0 1.6-.3 2.3-.3.3 0 .6 0 1 .3 1.1 0-.3 1.7 1 2 1.2 1.2-.7 2.5.2 3.6.1 1 .6 1.7.6 2.6h.3c1.5 0 2.4-1.3 3.3-2.3-.3-1.4 2-1.7 1.3-3.4-.4-1.7 1.7-2.8 1.6-4.6 0-.2 0-.3-.2-.3l-.4.1-.4.2c-.2 0-.3-.1-.3-.5-1-1-1.5-2.3-2.5-3.3 1.2.6 2 2 2.5 3.1h.2c1 0 2.4-2.4.9-3-.1.3-.2.4-.4.4s-.5-.3-.6-.6l-.2-.6.5.5.9.2h.9c.4 0 .6.6.7.6.4.7.8 2 1.1 2.4-.2-1.1-.2-2.4-.5-3.5zm-4-1.7c-.7-.2-1-1.1-1.6-1.7 0-.2.2-.1.2-.4.8.3.5.5.5.6.3.5 1.1.8 1 1.5zM23.3 12c-.8.2-.9 0-.7.5h.2c.4 0 1-.2.5-.5zm11.2 19.3c1-.8 1.1-1.9 1.2-2.9-.5.9-1.8 1.9-1.2 2.9zM30 17.7z"/>
		<path id="e" d="M24 9.3a1 1 0 0 0 0 29.5 1 1 0 0 0 0-29.5"/>
	</defs>
	<use xlink:href="#a" fill="none" stroke="#000" stroke-width="6" stroke-opacity=".2"/>
	<use xlink:href="#a" fill="none" stroke="#FFF" stroke-width="5"/>
	<use xlink:href="#e" fill="url(#d)"/>
	<use xlink:href="#a" fill="url(#c)"/>
	<use xlink:href="#b" fill="url(#c)"/>
</svg>