<svg xmlns="http://www.w3.org/2000/svg" xmlns:xlink="http://www.w3.org/1999/xlink" width="48px" height="48px" version="1.1">
  <defs>
    <linearGradient id="b" x1="0" x2="0" y1="0" y2="1">
      <stop offset="0%" stop-color="#9FCA49"/>
      <stop offset="100%" stop-color="#638A40"/>
    </linearGradient>
    <path id="a" d="M 33.4 29.9 c -2.5 -2.5 -6.1 1 -3.7 3.4 l 7.5 7.5 c 2.3 2.3 5.9 -1.2 3.5 -3.6 l -7.3 -7.3 z m -13.1 -25.9 c -8.9 0 -16.3 7.3 -16.3 16.3 c 0 8.9 7.3 16.2 16.3 16.2 c 8.9 0 16.3 -7.3 16.3 -16.2 c 0 -8.9 -7.3 -16.3 -16.3 -16.3 z m 0 5 c 6.2 0 11.3 5 11.3 11.3 c 0 6.2 -5 11.2 -11.3 11.2 c -6.2 0 -11.3 -5 -11.3 -11.2 c 0 -6.2 5 -11.3 11.3 -11.3 z"/>
  </defs>
  <use xlink:href="#a" fill="none" stroke="#FFF" stroke-width="6"/>
  <use xlink:href="#a" stroke="none" fill="url(#b)"/>
</svg>