<svg xmlns="http://www.w3.org/2000/svg" xmlns:xlink="http://www.w3.org/1999/xlink" width="50" height="28">
	<defs>
		<linearGradient id="c" x1="0" x2="0" y1="0" y2="1">
			<stop offset="0%" stop-color="#6E6E6E"/>
			<stop offset="100%" stop-color="#5B5B5B"/>
		</linearGradient>
		<linearGradient id="d" x1="0" x2="0" y1="0" y2="1">
			<stop offset="0%" stop-color="#EE9812"/>
			<stop offset="100%" stop-color="#E25B18"/>
		</linearGradient>
		<path id="a" d="M22.1 2c-.8 0-1.5.7-1.5 1.5V8c0 .2 0 .3.1.5A8 8 0 0 1 22.8 7c.8-.3 1.7-.5 2.6-.4 1.4.1 2.9.7 3.9 1.7l.2.2c.1-.2.1-.3.1-.5V3.5c0-.8-.7-1.5-1.5-1.5zm3 10.5h.1zm-12 0v3h3v3h-1.5c-.8 0-1.5.7-1.5 1.5v4.5c0 .8.7 1.5 1.5 1.5h6c.8 0 1.5-.7 1.5-1.5V20c0-.8-.7-1.5-1.5-1.5h-1.5v-3h3c0-.6.4-1 .7-1.5h-2.2c-.4 0-.8-.2-1-.4-.3-.3-.4-.7-.4-1zm18 0c0 .8-.1 1.6-.5 2.3-.1.3-.2.5-.4.7h.9v3h-1.5c-.8 0-1.5.7-1.5 1.5v4.5c0 .8.7 1.5 1.5 1.5h6c.8 0 1.5-.7 1.5-1.5V20c0-.8-.7-1.5-1.5-1.5h-1.5v-3h3v-3z"/>
		<path id="b" d="M25.1 7.9c-3.1 0-4.6 2.7-4.6 4.6h3c0-.6.4-1.2.9-1.4.6-.2 1.2-.1 1.6.3.4.4.6 1.1.3 1.6-.2.6-.8.9-1.4.9-.8 0-1.5.7-1.5 1.5v3h3v-1.8a4.45 4.45 0 0 0 1.7-7.4c-.8-.8-1.9-1.3-3-1.3Zm0 12.1c-.8 0-1.5.7-1.5 1.5s.7 1.5 1.5 1.5 1.5-.7 1.5-1.5-.7-1.5-1.5-1.5Z"/>
	</defs>
	<use xlink:href="#a" fill="none" stroke="#FFF" stroke-width="3"/>
	<use xlink:href="#b" fill="none" stroke="#FFF" stroke-width="3"/>
	<use xlink:href="#a" fill="url(#c)"/>
	<use xlink:href="#b" fill="url(#d)"/>
</svg>